<svg xmlns="http://www.w3.org/2000/svg" width="20" height="20" viewBox="0 0 20 20">
  <g id="Group_2" data-name="Group 2" transform="translate(-350 -3973)">
    <path id="Path_45" data-name="Path 45" d="M8.867-7.109,5.508-3.75l1.641,1.6a1.3,1.3,0,0,1,.352.9,1.3,1.3,0,0,1-.352.9A1.3,1.3,0,0,1,6.25,0a1.3,1.3,0,0,1-.9-.352L3.75-1.992l-.742.742L4.648.352A1.3,1.3,0,0,1,5,1.25a1.3,1.3,0,0,1-.352.9,1.324,1.324,0,0,1-1.8,0l-2.5-2.5A1.3,1.3,0,0,1,0-1.25a1.3,1.3,0,0,1,.352-.9L7.109-8.867a5.667,5.667,0,0,1-.9-3.008,5.688,5.688,0,0,1,1.68-3.984A5.766,5.766,0,0,1,11.875-17.5a5.766,5.766,0,0,1,3.984,1.641A5.766,5.766,0,0,1,17.5-11.875a5.766,5.766,0,0,1-1.641,3.984A5.766,5.766,0,0,1,11.875-6.25a5.875,5.875,0,0,1-3.008-.859ZM11.875-8.75a3.242,3.242,0,0,0,2.227-.9h0a3.242,3.242,0,0,0,.9-2.227,3.242,3.242,0,0,0-.9-2.227,3.242,3.242,0,0,0-2.227-.9,3.242,3.242,0,0,0-2.227.9,3.242,3.242,0,0,0-.9,2.227,3.242,3.242,0,0,0,.9,2.227A3.242,3.242,0,0,0,11.875-8.75Z" transform="translate(351 3990.5)" fill="#fff"/>
    <rect id="Rectangle_28" data-name="Rectangle 28" width="20" height="20" transform="translate(350 3973)" fill="none"/>
  </g>
</svg>
